<svg xmlns="http://www.w3.org/2000/svg" viewBox="0 0 152.29 304.58">
  <defs>
    <style>
      .bga {
        fill: none;
        stroke: #B3B1A4;
        stroke-miterlimit: 10;
        stroke-width: 6px;
      }

      .fga {
        fill: #89AFA6;
      }

      .bgb {
        fill: #89AFA6;
        stroke: #89AFA6;
        stroke-miterlimit: 10;
        stroke-width: 6px;
      }

      .fgb {
        fill: #FFFFFF;
      }
    </style>
  </defs>
  <title>tick</title>
  <g transform="translate(0,8.195)">
    <path class="bga" d="M33.91,133.84l-30.57-53a12,12,0,0,1,0-12l30.57-53a12,12,0,0,1,10.39-6h61.14a12,12,0,0,1,10.39,6l30.57,53a12,12,0,0,1,0,12l-30.57,53a12,12,0,0,1-10.39,6H44.3A12,12,0,0,1,33.91,133.84Z" transform="translate(1.27 -6.94)"/>
    <path class="fga" d="M59.87,107.82L30.06,78a3,3,0,0,1,0-4.24l4.24-4.24a3,3,0,0,1,4.24,0L62,93l47.59-47.59a3,3,0,0,1,4.24,0l4.24,4.24a3,3,0,0,1,0,4.24l-54,54A3,3,0,0,1,59.87,107.82Z" transform="translate(1.27 -6.94)"/>
  </g>
  <g transform="translate(0,160.485)">
    <path class="bgb" d="M33.91,133.84l-30.57-53a12,12,0,0,1,0-12l30.57-53a12,12,0,0,1,10.39-6h61.14a12,12,0,0,1,10.39,6l30.57,53a12,12,0,0,1,0,12l-30.57,53a12,12,0,0,1-10.39,6H44.3A12,12,0,0,1,33.91,133.84Z" transform="translate(1.27 -6.94)"/>
    <path class="fgb" d="M59.87,107.82L30.06,78a3,3,0,0,1,0-4.24l4.24-4.24a3,3,0,0,1,4.24,0L62,93l47.59-47.59a3,3,0,0,1,4.24,0l4.24,4.24a3,3,0,0,1,0,4.24l-54,54A3,3,0,0,1,59.87,107.82Z" transform="translate(1.27 -6.94)"/>
  </g>
</svg>
